<svg width="65" height="61" viewBox="0 0 65 61" fill="none" xmlns="http://www.w3.org/2000/svg">
<g id="Group 1000003356">
<path id="Vector 69" d="M28.5841 32.1702L3.30125 20.8187C2.56899 20.49 1.73851 21.0145 1.72068 21.8169L1.21286 44.6688C1.20345 45.0924 1.43352 45.4851 1.8076 45.684L27.9965 59.6079C28.7504 60.0087 29.6578 59.4537 29.6444 58.6001L29.2461 33.1758C29.2393 32.7405 28.9812 32.3485 28.5841 32.1702Z" fill="#0961F5"/>
<path id="Vector 70" d="M35.4932 32.1702L60.776 20.8187C61.5083 20.49 62.3388 21.0145 62.3566 21.8169L62.8644 44.6688C62.8738 45.0924 62.6437 45.4851 62.2697 45.684L36.0807 59.6079C35.3269 60.0087 34.4195 59.4537 34.4329 58.6001L34.8312 33.1758C34.838 32.7405 35.0961 32.3485 35.4932 32.1702Z" fill="#FFA800"/>
<path id="Rectangle 34624832" d="M31.5524 0.207221C31.8376 0.0751777 32.1652 0.0688954 32.4553 0.189904L61.927 12.4837C62.8401 12.8646 62.8485 14.1553 61.9405 14.5481L32.4356 27.3116C32.1572 27.432 31.8418 27.4345 31.5614 27.3185L3.00154 15.4975C2.09849 15.1237 2.07238 13.8541 2.95931 13.4435L31.5524 0.207221Z" fill="#242424"/>
</g>
</svg>
